<svg width="250" height="250" viewBox="0 0 250 250" fill="none" xmlns="http://www.w3.org/2000/svg">
<path d="M191.477 145.847C195.598 142.54 201.529 142.079 206.541 143.614C210.353 145.605 213.166 148.72 214.484 152.832C215.447 157.091 214.583 160.937 212.576 164.782C209.759 168.664 206.195 170.66 201.519 171.514C197.51 171.81 194.205 170.25 190.936 168.028C188.067 165.238 186.032 161.589 185.864 157.546C186.073 152.618 187.903 149.202 191.477 145.847ZM71.6883 147.031C77.2923 141.806 83.628 141.345 90.3123 144.765C93.2288 146.489 95.0535 149.218 96.2635 152.339C96.9342 156.737 96.7217 160.821 94.4305 164.7C91.6012 168.474 88.3001 170.709 83.6551 171.481C79.591 171.78 76.3113 170.305 73.0008 168.028C69.6129 164.722 68.135 161.505 67.8953 156.802C67.9724 152.922 69.1411 149.964 71.6883 147.031ZM74.2029 76.5523C76.6569 76.5564 79.1113 76.5519 81.5652 76.5494C85.6868 76.5464 89.8089 76.5504 93.9305 76.5582C98.6931 76.567 103.456 76.5642 108.219 76.5552C112.309 76.5479 116.4 76.5471 120.491 76.5513C122.934 76.5539 125.377 76.5538 127.819 76.5484C130.116 76.5437 132.413 76.5478 134.71 76.5572C135.552 76.5593 136.395 76.5578 137.237 76.5543C138.388 76.5498 139.539 76.556 140.69 76.564L142.641 76.566H152.5C154.977 76.5463 156.523 76.5762 159 76.566C160.068 76.5606 160.931 76.5754 162 76.566C163.543 76.5527 164.957 76.5707 166.5 76.566C166.972 76.5604 168.513 76.5717 169 76.566C175.721 76.5648 179.697 78.1374 184.512 82.8502C185.855 84.229 187.12 85.6666 188.383 87.1187C190.331 89.3536 192.347 91.5166 194.385 93.6695C195.054 94.3776 195.724 95.0863 196.392 95.7955L197.439 96.8902C198.509 98.0647 198.51 98.0657 199.568 99.4254C202.905 103.583 206.596 105.166 211.46 106.89C212.824 107.394 214.187 107.905 215.549 108.416L215.701 108.473L217.724 109.228C221.551 110.73 225.023 112.187 227.722 115.378L228.636 116.391C230.998 120.216 230.606 133.712 230.592 138.042C230.622 139.484 230.667 140.818 230.969 142.23C232.207 143.359 232.208 143.359 233.674 143.853C235.358 146.38 235.08 149.008 234.756 151.967C233.966 154.009 232.795 155.078 230.969 156.295C229.742 156.418 229.741 156.418 228.325 156.401L226.788 156.39L225.187 156.363L223.567 156.348C222.248 156.335 220.928 156.318 219.608 156.295L219.467 154.947C218.69 148.776 217.13 144.468 212.256 140.44C207.3 136.962 202.295 136.369 196.346 136.82C191.894 137.842 187.801 140.427 185.08 144.104C182.509 148.244 181.747 151.353 181.198 156.295H101.673L100.591 149.803C97.8132 143.246 94.7773 140.113 88.1473 137.361C83.2258 135.753 77.9094 136.548 73.3358 138.728C68.4976 141.447 65.6103 145.651 63.8035 150.885C63.5626 152.325 63.5618 152.325 63.4647 153.759L63.3426 155.207L63.2625 156.295C50.4687 156.734 50.4676 156.734 46.8885 153.599C45.0058 151.411 45.2008 149.355 45.2176 146.555C45.5067 144.119 46.2767 143.27 48.1141 141.689L49.7371 141.148L50.2781 125.459L56.3748 125.378C58.3191 125.349 60.2645 125.319 62.2088 125.288C63.5619 125.267 64.9153 125.248 66.2684 125.231C68.2114 125.206 70.1546 125.175 72.0975 125.142L73.9373 125.123L75.6434 125.09L77.1463 125.069C78.5557 124.997 78.5569 124.997 80.033 123.836C80.2584 122.484 80.2583 122.483 80.033 121.131C78.6801 119.779 77.8711 119.918 76.0252 119.904L74.7899 119.911L73.4891 119.905C72.5553 119.901 71.6211 119.9 70.6873 119.901C69.2095 119.901 67.7315 119.895 66.2537 119.885C62.0515 119.86 57.8486 119.847 53.6463 119.843C51.0776 119.841 48.5089 119.828 45.9402 119.808C44.9607 119.803 43.9804 119.801 43.0008 119.804C41.6305 119.808 40.2606 119.799 38.8904 119.787L37.6619 119.799C35.7855 119.769 34.7688 119.645 33.2557 118.494C32.4256 117.345 32.4255 117.344 32.1551 115.992C32.5172 114.181 33.1532 113.619 34.5897 112.475C36.1364 112.202 36.1371 112.202 37.9471 112.197L40.0037 112.175L42.2186 112.183C42.9769 112.178 43.7356 112.172 44.494 112.165C46.4874 112.147 48.4809 112.141 50.4744 112.139C53.669 112.134 56.8639 112.115 60.0584 112.089C61.175 112.083 62.2924 112.082 63.409 112.084L65.4549 112.073L67.2625 112.07C68.7588 112.076 68.759 112.076 69.7537 110.852C69.6648 109.192 69.6647 109.191 69.2127 107.606C67.3891 106.694 65.3221 106.988 63.3162 106.989L61.8045 106.983C60.7193 106.979 59.6338 106.976 58.5486 106.974C56.8325 106.97 55.1154 106.962 53.3992 106.952C48.5189 106.923 43.638 106.898 38.7576 106.889C35.775 106.884 32.792 106.868 29.8094 106.845C28.6709 106.839 27.5319 106.835 26.3934 106.836C24.8028 106.838 23.2124 106.826 21.6219 106.811L20.1883 106.822C17.0077 106.772 17.0069 106.772 15.6326 105.511C14.9908 104.088 14.8765 103.2 15.1141 101.656C15.806 100.775 15.8066 100.774 16.7371 100.033C18.3822 99.8735 19.9177 99.8131 21.5633 99.8248L23.0594 99.816C24.1317 99.8107 25.2048 99.8085 26.2772 99.8101C27.9728 99.8125 29.6685 99.8047 31.3641 99.7945C35.4205 99.772 39.4776 99.7666 43.534 99.7603L43.9998 99.7593C47.558 99.7531 51.1164 99.7398 54.6746 99.7183C56.3476 99.711 58.0212 99.7138 59.6942 99.7164C60.717 99.7113 61.7406 99.7058 62.7635 99.6998L64.1785 99.7095C66.5028 99.7531 66.5038 99.753 68.5272 98.775C69.5461 97.4279 69.3218 96.2584 69.2127 94.6226C67.3237 93.9931 65.7547 93.9676 63.7625 93.9107L62.6424 93.8765C61.463 93.8412 60.2828 93.8087 59.1033 93.7769C58.303 93.7535 57.5023 93.7304 56.702 93.7066C54.7414 93.6487 52.7798 93.5938 50.8192 93.5406C50.7396 91.8279 50.6923 90.115 50.6502 88.4009L50.5818 86.9478C50.5184 83.4966 51.1129 80.9624 53.5242 78.3931C55.6914 76.819 57.2231 76.5666 59.8807 76.564L60.9715 76.5562C62.1741 76.5498 63.3772 76.555 64.5799 76.5601C65.4436 76.5579 66.308 76.5549 67.1717 76.5513C69.5154 76.5439 71.8593 76.5472 74.2029 76.5523ZM118.894 98.648C108.269 88.5886 93.4389 87.0661 79.492 87.4205C80.1005 92.0508 81.2055 96.388 82.6893 100.814C82.8092 101.169 82.9254 101.514 83.0418 101.859C86.8164 113.139 91.6074 123.94 102.653 129.821C108.728 132.61 116.708 134.365 123.312 132.323V130.7C119.41 123.254 112.931 115.407 106.642 109.906C104.991 108.512 103.381 107.082 101.788 105.622C101.484 105.342 101.189 105.071 100.894 104.8C99.7023 103.706 98.4888 102.631 97.3445 101.487C109.215 106.794 118.326 115.3 126.087 125.565C126.598 126.245 126.598 126.246 127.098 126.913C127.752 125.771 128.165 124.884 128.321 123.57C128.322 123.14 128.323 122.722 128.324 122.304C128.325 121.826 128.328 121.362 128.329 120.898C128.323 120.162 128.322 120.162 128.316 119.441C128.325 118.491 128.327 117.54 128.324 116.589C128.108 109.276 123.935 103.604 118.894 98.648Z" fill="#08CB00"/>
</svg>
